# xmcd
#
# Track frame offsets:
#	150
#	17190
#	33270
#	49895
#	63500
#	88770
#	102537
#	114520
#	133775
#	150450
#	164530
#
# Disc length: 2550 seconds
#
# Revision: 1
# Processed by: cddbd v1.5.2PL0 Copyright (c) Steve Scherf et al.
# Submitted via: audiograbber 1.83.01
#
DISCID=9309f40b
DTITLE=Texas Lone Star - Desperados Waiting For The Train
DYEAR=1977
DGENRE=Country Rock
TTITLE0=Painted Ladies
TTITLE1=Friend Of The Devil
TTITLE2=Luckenbach, Texas
TTITLE3=Me And My Uncle
TTITLE4=In My Own Way
TTITLE5=Fast Train
TTITLE6=Bluebirds Are Singing For Me
TTITLE7=Wild Horses
TTITLE8=Good Hearted Woman
TTITLE9=Here I Am Again
TTITLE10=Desperados Waiting For The Train
EXTD=
EXTT0=
EXTT1=
EXTT2=
EXTT3=
EXTT4=
EXTT5=
EXTT6=
EXTT7=
EXTT8=
EXTT9=
EXTT10=
PLAYORDER=
